<svg width="80" height="80" viewBox="0 0 80 80" fill="none" xmlns="http://www.w3.org/2000/svg">
<path d="M74.6638 66.875L42.1638 10.625C41.6794 9.78906 40.8435 9.375 39.9997 9.375C39.156 9.375 38.3122 9.78906 37.8356 10.625L5.33564 66.875C4.37471 68.5469 5.57783 70.625 7.49971 70.625H72.4997C74.4216 70.625 75.6247 68.5469 74.6638 66.875ZM37.4997 32.5C37.4997 32.1562 37.781 31.875 38.1247 31.875H41.8747C42.2185 31.875 42.4997 32.1562 42.4997 32.5V46.875C42.4997 47.2188 42.2185 47.5 41.8747 47.5H38.1247C37.781 47.5 37.4997 47.2188 37.4997 46.875V32.5ZM39.9997 60C39.0184 59.98 38.084 59.5761 37.3971 58.875C36.7102 58.1739 36.3255 57.2315 36.3255 56.25C36.3255 55.2685 36.7102 54.3261 37.3971 53.625C38.084 52.9239 39.0184 52.52 39.9997 52.5C40.981 52.52 41.9154 52.9239 42.6023 53.625C43.2892 54.3261 43.6739 55.2685 43.6739 56.25C43.6739 57.2315 43.2892 58.1739 42.6023 58.875C41.9154 59.5761 40.981 59.98 39.9997 60Z" fill="#FAAD14"/>
</svg>
