<svg width="16" height="16" viewBox="0 0 16 16" fill="none" xmlns="http://www.w3.org/2000/svg">
<path fill-rule="evenodd" clip-rule="evenodd" d="M13.5328 3.60707C13.8934 3.95975 14.1818 4.37935 14.3817 4.84239C14.5891 5.32429 14.6951 5.83603 14.6936 6.36268C14.6936 6.8595 14.5921 7.3772 14.3907 7.90385C14.2236 8.34398 13.9804 8.80051 13.6716 9.26152C13.1822 9.99108 12.5094 10.752 11.6739 11.5233C10.2879 12.8019 8.91826 13.6836 8.86007 13.7209L8.50648 13.9477C8.34983 14.0477 8.14842 14.0477 7.99177 13.9477L7.63818 13.7209C7.57999 13.6851 6.2089 12.8019 4.82437 11.5233C3.98889 10.752 3.31602 9.99108 2.82667 9.26152C2.51784 8.80051 2.27614 8.34398 2.10755 7.90385C1.90614 7.3772 1.80469 6.8595 1.80469 6.36268C1.80469 5.83603 1.91062 5.32429 2.11799 4.84239C2.31743 4.37905 2.60585 3.95935 2.96691 3.60707C3.32945 3.25199 3.75167 2.97299 4.22014 2.77904C4.70502 2.57763 5.21825 2.47618 5.74789 2.47618C6.48341 2.47618 7.20104 2.67759 7.82467 3.05803C7.97386 3.14904 8.1156 3.249 8.24987 3.35791C8.38415 3.249 8.52588 3.14904 8.67507 3.05803C9.2987 2.67759 10.0163 2.47618 10.7519 2.47618C11.2761 2.47497 11.7954 2.57792 12.2796 2.77904C12.7465 2.97223 13.172 3.25334 13.5328 3.60707ZM2.93856 6.36268C2.93856 9.36446 8.24987 12.7676 8.24987 12.7676C8.24987 12.7676 8.24991 12.7676 8.25 12.7675C8.22227 12.7497 2.9388 9.35657 2.9388 6.36267C2.9388 4.90032 4.10247 3.70439 5.57205 3.61535C4.10235 3.70427 2.93856 4.90026 2.93856 6.36268ZM10.5681 3.61584C9.5558 3.67985 8.68917 4.26898 8.24999 5.10772C8.25003 5.1078 8.25007 5.10787 8.25011 5.10794C8.68921 4.26915 9.55581 3.67994 10.5681 3.61584Z" fill="#061178"/>
</svg>
