<svg width="14" height="14" viewBox="0 0 14 14" fill="none" xmlns="http://www.w3.org/2000/svg">
<path d="M5.375 5.90672H12.875C12.9438 5.90672 13 5.85047 13 5.78172V4.90672C13 4.83797 12.9438 4.78172 12.875 4.78172H5.375C5.30625 4.78172 5.25 4.83797 5.25 4.90672V5.78172C5.25 5.85047 5.30625 5.90672 5.375 5.90672ZM5.25 9.09422C5.25 9.16297 5.30625 9.21922 5.375 9.21922H12.875C12.9438 9.21922 13 9.16297 13 9.09422V8.21922C13 8.15047 12.9438 8.09422 12.875 8.09422H5.375C5.30625 8.09422 5.25 8.15047 5.25 8.21922V9.09422ZM13.125 1.50047H0.875C0.80625 1.50047 0.75 1.55672 0.75 1.62547V2.50047C0.75 2.56922 0.80625 2.62547 0.875 2.62547H13.125C13.1938 2.62547 13.25 2.56922 13.25 2.50047V1.62547C13.25 1.55672 13.1938 1.50047 13.125 1.50047ZM13.125 11.3755H0.875C0.80625 11.3755 0.75 11.4317 0.75 11.5005V12.3755C0.75 12.4442 0.80625 12.5005 0.875 12.5005H13.125C13.1938 12.5005 13.25 12.4442 13.25 12.3755V11.5005C13.25 11.4317 13.1938 11.3755 13.125 11.3755ZM0.803125 7.10829L3.24531 9.03172C3.33594 9.1036 3.47031 9.03954 3.47031 8.92391V5.07704C3.47031 4.96141 3.3375 4.89735 3.24531 4.96922L0.803125 6.89266C0.786703 6.90543 0.773415 6.92178 0.764275 6.94046C0.755134 6.95915 0.750382 6.97967 0.750382 7.00047C0.750382 7.02127 0.755134 7.0418 0.764275 7.06048C0.773415 7.07917 0.786703 7.09552 0.803125 7.10829Z" fill="#8C8C8C"/>
</svg>
