<svg width="24" height="25" viewBox="0 0 24 25" fill="none" xmlns="http://www.w3.org/2000/svg">
<g clip-path="url(#clip0_5101_60304)">
<g clip-path="url(#clip1_5101_60304)">
<path d="M16.6443 8.66399C16.6443 8.54614 16.5478 8.44971 16.43 8.44971L14.6621 8.45774L11.9996 11.6319L9.3398 8.46042L7.56927 8.45239C7.45141 8.45239 7.35498 8.54614 7.35498 8.66667C7.35498 8.71756 7.37373 8.76578 7.40587 8.80596L10.8907 12.9577L7.40587 17.1068C7.37351 17.1461 7.35555 17.1953 7.35498 17.2461C7.35498 17.364 7.45141 17.4604 7.56927 17.4604L9.3398 17.4524L11.9996 14.2783L14.6594 17.4497L16.4273 17.4577C16.5452 17.4577 16.6416 17.364 16.6416 17.2435C16.6416 17.1926 16.6228 17.1444 16.5907 17.1042L13.1112 12.9551L16.5961 8.80328C16.6282 8.76578 16.6443 8.71489 16.6443 8.66399Z" fill="#2F54EB"/>
<path d="M12 0.899902C5.37321 0.899902 0 6.27312 0 12.8999C0 19.5267 5.37321 24.8999 12 24.8999C18.6268 24.8999 24 19.5267 24 12.8999C24 6.27312 18.6268 0.899902 12 0.899902ZM12 22.8642C6.49821 22.8642 2.03571 18.4017 2.03571 12.8999C2.03571 7.39812 6.49821 2.93562 12 2.93562C17.5018 2.93562 21.9643 7.39812 21.9643 12.8999C21.9643 18.4017 17.5018 22.8642 12 22.8642Z" fill="#2F54EB"/>
</g>
</g>
<defs>
<clipPath id="clip0_5101_60304">
<rect width="24" height="24" fill="white" transform="translate(0 0.899902)"/>
</clipPath>
<clipPath id="clip1_5101_60304">
<rect width="24" height="24" fill="white" transform="translate(0 0.899902)"/>
</clipPath>
</defs>
</svg>
