<svg width="14" height="14" viewBox="0 0 14 14" fill="none" xmlns="http://www.w3.org/2000/svg">
<g clip-path="url(#clip0_9101_1069)">
<rect width="14" height="14" fill="white" fill-opacity="0.01"/>
<path d="M3.69287 10.1406C3.69287 10.4605 3.954 10.7217 4.27529 10.7217H4.94111V12.3678C4.94111 12.7847 5.27607 13.1252 5.6876 13.1252C6.10049 13.1252 6.43408 12.7861 6.43408 12.3678V10.7203H7.59619V12.3664C7.59619 12.7834 7.93115 13.1238 8.34268 13.1238C8.75557 13.1238 9.08916 12.7847 9.08916 12.3664V10.7203H9.75498C10.0763 10.7203 10.3374 10.4592 10.3374 10.1392V4.73612H3.69287V10.1406V10.1406ZM8.5751 1.93612L9.18896 1.04744C9.22451 0.995491 9.21631 0.925765 9.16846 0.891585C9.12061 0.858773 9.05225 0.875179 9.0167 0.927132L8.37959 1.85135C7.95986 1.68592 7.49228 1.59432 7.00146 1.59432C6.51064 1.59432 6.04307 1.68592 5.62334 1.85135L4.98623 0.928499C4.95068 0.876546 4.88232 0.858773 4.83447 0.892952C4.78662 0.925765 4.77842 0.994124 4.81396 1.04881L5.42783 1.93748C4.45166 2.39139 3.76807 3.25135 3.68057 4.25623H10.3251C10.2349 3.24998 9.5499 2.39002 8.5751 1.93612V1.93612ZM5.59873 3.33748C5.52599 3.33748 5.45489 3.31591 5.39441 3.2755C5.33393 3.23509 5.28679 3.17765 5.25895 3.11045C5.23112 3.04325 5.22383 2.9693 5.23802 2.89796C5.25221 2.82662 5.28724 2.76109 5.33868 2.70966C5.39011 2.65822 5.45564 2.62319 5.52698 2.609C5.59832 2.59481 5.67227 2.6021 5.73947 2.62993C5.80667 2.65777 5.86411 2.70491 5.90452 2.76539C5.94493 2.82587 5.9665 2.89697 5.9665 2.96971C5.96625 3.06717 5.92742 3.16057 5.85851 3.22949C5.78959 3.2984 5.69619 3.33723 5.59873 3.33748V3.33748ZM8.44795 3.33748C8.37521 3.33748 8.3041 3.31591 8.24362 3.2755C8.18314 3.23509 8.13601 3.17765 8.10817 3.11045C8.08034 3.04325 8.07305 2.9693 8.08724 2.89796C8.10143 2.82662 8.13646 2.76109 8.18789 2.70966C8.23933 2.65822 8.30486 2.62319 8.3762 2.609C8.44754 2.59481 8.52149 2.6021 8.58869 2.62993C8.65589 2.65777 8.71333 2.70491 8.75374 2.76539C8.79415 2.82587 8.81572 2.89697 8.81572 2.96971C8.81547 3.06717 8.77664 3.16057 8.70773 3.22949C8.63881 3.2984 8.54541 3.33723 8.44795 3.33748ZM11.5022 4.71424C11.0894 4.71424 10.7558 5.0533 10.7558 5.47166V8.43026C10.7558 8.84725 11.0907 9.18768 11.5022 9.18768C11.9151 9.18768 12.2487 8.84862 12.2487 8.43026V5.4703C12.2501 5.05194 11.9165 4.71424 11.5022 4.71424ZM2.49795 4.71424C2.08506 4.71424 1.75146 5.0533 1.75146 5.47166V8.43026C1.75146 8.84725 2.08643 9.18768 2.49795 9.18768C2.91084 9.18768 3.24443 8.84862 3.24443 8.43026V5.4703C3.24443 5.05194 2.90947 4.71424 2.49795 4.71424Z" fill="black" fill-opacity="0.85"/>
</g>
<defs>
<clipPath id="clip0_9101_1069">
<rect width="14" height="14" fill="white"/>
</clipPath>
</defs>
</svg>
