<svg width="15" height="14" viewBox="0 0 15 14" fill="none" xmlns="http://www.w3.org/2000/svg">
<g clip-path="url(#clip0_9101_1076)">
<rect width="14" height="14" transform="translate(0.5)" fill="white" fill-opacity="0.01"/>
<path d="M10.7184 7.32415C10.7129 6.39172 11.1354 5.68899 11.9885 5.17083C11.5113 4.48723 10.7895 4.11126 9.83789 4.03879C8.93691 3.9677 7.95117 4.56379 7.59023 4.56379C7.20879 4.56379 6.33652 4.0634 5.6502 4.0634C4.23379 4.08528 2.72852 5.1927 2.72852 7.44583C2.72852 8.11165 2.8502 8.79934 3.09355 9.50755C3.41895 10.44 4.59199 12.7245 5.81562 12.6876C6.45547 12.6726 6.90801 12.2337 7.74062 12.2337C8.54863 12.2337 8.96699 12.6876 9.68066 12.6876C10.9152 12.6699 11.9762 10.5931 12.2852 9.65794C10.6295 8.87727 10.7184 7.372 10.7184 7.32415V7.32415ZM9.28145 3.15422C9.97461 2.33118 9.91172 1.58196 9.89121 1.31262C9.27871 1.34817 8.57051 1.72961 8.16719 2.19856C7.72285 2.70168 7.46172 3.32376 7.51777 4.02512C8.17949 4.07571 8.78379 3.73528 9.28145 3.15422V3.15422Z" fill="black" fill-opacity="0.85"/>
</g>
<defs>
<clipPath id="clip0_9101_1076">
<rect width="14" height="14" fill="white" transform="translate(0.5)"/>
</clipPath>
</defs>
</svg>
