<svg width="14" height="14" viewBox="0 0 14 14" fill="none" xmlns="http://www.w3.org/2000/svg">
<path fill-rule="evenodd" clip-rule="evenodd" d="M11.6225 2.93755C11.938 3.24615 12.1903 3.6133 12.3653 4.01846C12.5467 4.44012 12.6394 4.88789 12.6381 5.34871C12.6381 5.78343 12.5493 6.23642 12.3731 6.69724C12.2269 7.08235 12.0141 7.48182 11.7439 7.8852C11.3157 8.52356 10.7269 9.18934 9.99589 9.86426C8.78313 10.983 7.58473 11.7545 7.53381 11.7872L7.22442 11.9856C7.08735 12.0731 6.91112 12.0731 6.77404 11.9856L6.46465 11.7872C6.41374 11.7559 5.21403 10.983 4.00258 9.86426C3.27153 9.18934 2.68277 8.52356 2.25458 7.8852C1.98436 7.48182 1.77287 7.08235 1.62536 6.69724C1.44912 6.23642 1.36035 5.78343 1.36035 5.34871C1.36035 4.88789 1.45304 4.44012 1.6345 4.01846C1.80901 3.61304 2.06137 3.2458 2.3773 2.93755C2.69452 2.62686 3.06396 2.38274 3.47387 2.21303C3.89814 2.03679 4.34722 1.94802 4.81065 1.94802C5.45424 1.94802 6.08216 2.12426 6.62783 2.45715C6.75838 2.53678 6.8824 2.62424 6.99989 2.71954C7.11738 2.62424 7.24139 2.53678 7.37194 2.45715C7.91762 2.12426 8.54554 1.94802 9.18912 1.94802C9.64787 1.94697 10.1023 2.03705 10.5259 2.21303C10.9345 2.38207 11.3067 2.62804 11.6225 2.93755ZM2.35249 5.34871C2.35249 7.97528 6.99989 10.953 6.99989 10.953C6.99989 10.953 6.99992 10.953 7 10.9529C6.97573 10.9374 2.3527 7.96837 2.3527 5.3487C2.3527 4.06915 3.37091 3.02271 4.6568 2.9448C3.37081 3.02261 2.35249 4.06909 2.35249 5.34871ZM9.03386 2.94489C8.14572 2.9991 7.38507 3.51521 6.99999 4.25063C7.00003 4.25069 7.00006 4.25075 7.0001 4.25082C7.38511 3.51535 8.14573 2.99918 9.03386 2.94489Z" fill="#2F54EB"/>
</svg>
