<svg width="14" height="14" viewBox="0 0 14 14" fill="none" xmlns="http://www.w3.org/2000/svg">
<g clip-path="url(#clip0_9101_1056)">
<rect width="14" height="14" fill="white" fill-opacity="0.01"/>
<g clip-path="url(#clip1_9101_1056)">
<path d="M13.4502 8.77897L12.4268 7.90397C12.4752 7.60709 12.5002 7.30397 12.5002 7.00084C12.5002 6.69772 12.4752 6.39459 12.4268 6.09772L13.4502 5.22272C13.5274 5.15663 13.5826 5.06862 13.6086 4.97037C13.6346 4.87213 13.63 4.76831 13.5955 4.67272L13.5814 4.63209C13.2997 3.84463 12.8778 3.11465 12.3361 2.4774L12.308 2.44459C12.2423 2.36733 12.1547 2.31179 12.0568 2.28529C11.9589 2.25879 11.8553 2.26258 11.7596 2.29615L10.4893 2.74772C10.0205 2.36334 9.49707 2.06022 8.93145 1.84772L8.68614 0.519592C8.66763 0.419658 8.61915 0.327721 8.54715 0.255995C8.47514 0.184269 8.38302 0.13615 8.28301 0.11803L8.24082 0.110217C7.42676 -0.0366577 6.57051 -0.0366577 5.75645 0.110217L5.71426 0.11803C5.61426 0.13615 5.52213 0.184269 5.45013 0.255995C5.37812 0.327721 5.32964 0.419658 5.31114 0.519592L5.06426 1.85397C4.50315 2.06651 3.98062 2.36948 3.51739 2.75084L2.2377 2.29615C2.14202 2.26231 2.03831 2.25839 1.94035 2.2849C1.84239 2.31142 1.75481 2.36711 1.68926 2.44459L1.66114 2.4774C1.12011 3.1151 0.698286 3.84496 0.415823 4.63209L0.401761 4.67272C0.331448 4.86803 0.389261 5.08678 0.547073 5.22272L1.58301 6.10709C1.53457 6.40084 1.51114 6.70084 1.51114 6.99928C1.51114 7.29928 1.53457 7.59928 1.58301 7.89147L0.547073 8.77584C0.469879 8.84193 0.41463 8.92994 0.388673 9.02819C0.362716 9.12643 0.367281 9.23025 0.401761 9.32584L0.415823 9.36647C0.698636 10.154 1.11739 10.8805 1.66114 11.5212L1.68926 11.554C1.75497 11.6312 1.84255 11.6868 1.94045 11.7133C2.03836 11.7398 2.14199 11.736 2.2377 11.7024L3.51739 11.2477C3.98301 11.6305 4.50332 11.9337 5.06426 12.1446L5.31114 13.479C5.32964 13.5789 5.37812 13.6708 5.45013 13.7426C5.52213 13.8143 5.61426 13.8624 5.71426 13.8805L5.75645 13.8883C6.57799 14.036 7.41928 14.036 8.24082 13.8883L8.28301 13.8805C8.38302 13.8624 8.47514 13.8143 8.54715 13.7426C8.61915 13.6708 8.66763 13.5789 8.68614 13.479L8.93145 12.1508C9.49684 11.9389 10.0232 11.6348 10.4893 11.2508L11.7596 11.7024C11.8553 11.7362 11.959 11.7402 12.0569 11.7137C12.1549 11.6871 12.2425 11.6314 12.308 11.554L12.3361 11.5212C12.8799 10.879 13.2986 10.154 13.5814 9.36647L13.5955 9.32584C13.6658 9.13366 13.608 8.91491 13.4502 8.77897ZM11.3174 6.28209C11.3564 6.51803 11.3768 6.76022 11.3768 7.0024C11.3768 7.24459 11.3564 7.48678 11.3174 7.72272L11.2143 8.34928L12.3814 9.34772C12.2045 9.75536 11.9812 10.1412 11.7158 10.4977L10.2658 9.98365L9.7752 10.3868C9.40176 10.693 8.98614 10.9337 8.53614 11.1024L7.94082 11.3258L7.66114 12.8415C7.21984 12.8915 6.77431 12.8915 6.33301 12.8415L6.05332 11.3227L5.4627 11.0962C5.01739 10.9274 4.60332 10.6868 4.23301 10.3821L3.74239 9.97741L2.28301 10.4962C2.01739 10.1383 1.79551 9.75241 1.61739 9.34616L2.79707 8.33834L2.69551 7.71334C2.65801 7.48053 2.6377 7.2399 2.6377 7.0024C2.6377 6.76334 2.65645 6.52428 2.69551 6.29147L2.79707 5.66647L1.61739 4.65865C1.79395 4.25084 2.01739 3.86647 2.28301 3.50865L3.74239 4.0274L4.23301 3.62272C4.60332 3.31803 5.01739 3.0774 5.4627 2.90865L6.05489 2.68522L6.33457 1.16647C6.77364 1.11647 7.22207 1.11647 7.6627 1.16647L7.94239 2.68209L8.5377 2.90553C8.98614 3.07428 9.40332 3.3149 9.77676 3.62115L10.2674 4.02428L11.7174 3.51022C11.983 3.86803 12.2049 4.25397 12.383 4.66022L11.2158 5.65865L11.3174 6.28209ZM7.0002 4.09615C5.48145 4.09615 4.2502 5.3274 4.2502 6.84615C4.2502 8.3649 5.48145 9.59616 7.0002 9.59616C8.51895 9.59616 9.7502 8.3649 9.7502 6.84615C9.7502 5.3274 8.51895 4.09615 7.0002 4.09615ZM8.2377 8.08366C8.07539 8.24643 7.8825 8.37551 7.67012 8.46346C7.45774 8.55142 7.23007 8.59651 7.0002 8.59616C6.53301 8.59616 6.09395 8.41334 5.7627 8.08366C5.59992 7.92135 5.47084 7.72845 5.38289 7.51608C5.29494 7.3037 5.24984 7.07603 5.2502 6.84615C5.2502 6.37897 5.43301 5.9399 5.7627 5.60865C6.09395 5.2774 6.53301 5.09615 7.0002 5.09615C7.46739 5.09615 7.90645 5.2774 8.2377 5.60865C8.40047 5.77096 8.52955 5.96386 8.61751 6.17623C8.70546 6.38861 8.75056 6.61628 8.7502 6.84615C8.7502 7.31334 8.56739 7.75241 8.2377 8.08366Z" fill="#262626"/>
</g>
</g>
<defs>
<clipPath id="clip0_9101_1056">
<rect width="14" height="14" fill="white"/>
</clipPath>
<clipPath id="clip1_9101_1056">
<rect width="14" height="14" fill="white"/>
</clipPath>
</defs>
</svg>
