<svg width="42" height="42" viewBox="0 0 42 42" fill="none" xmlns="http://www.w3.org/2000/svg">
<rect width="42" height="42" rx="21" fill="#F5F5F5"/>
<path d="M28.7337 26.6133C28.3127 25.616 27.7016 24.71 26.9346 23.9459C26.17 23.1797 25.2642 22.5687 24.2672 22.1468C24.2583 22.1424 24.2494 22.1401 24.2404 22.1357C25.6311 21.1312 26.5351 19.495 26.5351 17.6491C26.5351 14.591 24.0574 12.1133 20.9994 12.1133C17.9413 12.1133 15.4636 14.591 15.4636 17.6491C15.4636 19.495 16.3677 21.1312 17.7583 22.1379C17.7494 22.1424 17.7404 22.1446 17.7315 22.1491C16.7315 22.5709 15.8342 23.1758 15.0641 23.9482C14.2978 24.7128 13.6869 25.6186 13.265 26.6156C12.8505 27.5916 12.627 28.638 12.6065 29.6982C12.6059 29.722 12.6101 29.7457 12.6188 29.7679C12.6275 29.7901 12.6406 29.8103 12.6572 29.8273C12.6738 29.8444 12.6937 29.8579 12.7157 29.8672C12.7377 29.8764 12.7612 29.8812 12.7851 29.8812H14.1244C14.2226 29.8812 14.3007 29.8031 14.3029 29.7071C14.3476 27.9839 15.0395 26.37 16.2628 25.1468C17.5284 23.8812 19.2092 23.1848 20.9994 23.1848C22.7895 23.1848 24.4703 23.8812 25.736 25.1468C26.9592 26.37 27.6511 27.9839 27.6958 29.7071C27.698 29.8053 27.7761 29.8812 27.8744 29.8812H29.2136C29.2375 29.8812 29.2611 29.8764 29.283 29.8672C29.305 29.8579 29.3249 29.8444 29.3415 29.8273C29.3582 29.8103 29.3712 29.7901 29.3799 29.7679C29.3886 29.7457 29.3928 29.722 29.3922 29.6982C29.3699 28.6312 29.1489 27.5933 28.7337 26.6133ZM20.9994 21.4883C19.9748 21.4883 19.0105 21.0888 18.2851 20.3633C17.5596 19.6379 17.1601 18.6736 17.1601 17.6491C17.1601 16.6245 17.5596 15.6602 18.2851 14.9348C19.0105 14.2093 19.9748 13.8098 20.9994 13.8098C22.0239 13.8098 22.9882 14.2093 23.7136 14.9348C24.4391 15.6602 24.8386 16.6245 24.8386 17.6491C24.8386 18.6736 24.4391 19.6379 23.7136 20.3633C22.9882 21.0888 22.0239 21.4883 20.9994 21.4883Z" fill="#262626"/>
</svg>
