<svg width="13" height="13" viewBox="0 0 13 13" fill="none" xmlns="http://www.w3.org/2000/svg">
<path fill-rule="evenodd" clip-rule="evenodd" d="M10.375 0.75H11.8125C11.9948 0.75 12.1697 0.822433 12.2986 0.951364C12.4276 1.0803 12.5 1.25516 12.5 1.4375V3.75C12.5 5.02656 11.5625 6.0875 10.3406 6.28125C10.1 8.09688 8.64062 9.52812 6.8125 9.72656V11.3703H9.875C10.1516 11.3703 10.375 11.5938 10.375 11.8703V12.375C10.375 12.4438 10.3188 12.5 10.25 12.5H2.25C2.18125 12.5 2.125 12.4438 2.125 12.375V11.8703C2.125 11.5938 2.34844 11.3703 2.625 11.3703H5.6875V9.72656C3.85938 9.52812 2.4 8.09688 2.15937 6.28125C0.9375 6.0875 0 5.02656 0 3.75V1.4375C0 1.25516 0.0724328 1.0803 0.201364 0.951364C0.330295 0.822433 0.505164 0.75 0.6875 0.75H2.125V0.125C2.125 0.05625 2.18125 0 2.25 0H10.25C10.3188 0 10.375 0.05625 10.375 0.125V0.75ZM2.125 5.11875V1.875H1.125V3.75C1.12506 3.93422 1.16051 4.11555 1.22826 4.28452C1.38717 4.67904 1.71652 4.98773 2.125 5.11875ZM1.41315 4.61287C1.51249 4.74486 1.63404 4.85919 1.77221 4.95025C1.63476 4.85979 1.51308 4.7459 1.41315 4.61287ZM10.375 5.11875C10.9547 4.93438 11.375 4.39062 11.375 3.75V1.875H10.375V5.11875Z" fill="#061178"/>
</svg>
