<svg width="71" height="71" viewBox="0 0 71 71" fill="none" xmlns="http://www.w3.org/2000/svg">
<path d="M35.5 0.5C16.1719 0.5 0.5 16.1719 0.5 35.5C0.5 54.8281 16.1719 70.5 35.5 70.5C54.8281 70.5 70.5 54.8281 70.5 35.5C70.5 16.1719 54.8281 0.5 35.5 0.5ZM50.6172 24.0703L34.1641 46.8828C33.9341 47.2038 33.6309 47.4653 33.2797 47.6457C32.9285 47.8261 32.5394 47.9203 32.1445 47.9203C31.7497 47.9203 31.3605 47.8261 31.0093 47.6457C30.6581 47.4653 30.355 47.2038 30.125 46.8828L20.3828 33.3828C20.0859 32.9687 20.3828 32.3906 20.8906 32.3906H24.5547C25.3516 32.3906 26.1094 32.7734 26.5781 33.4297L32.1406 41.1484L44.4219 24.1172C44.8906 23.4687 45.6406 23.0781 46.4453 23.0781H50.1094C50.6172 23.0781 50.9141 23.6563 50.6172 24.0703V24.0703Z" fill="#2F54EB"/>
</svg>
